<?xml version="1.0" encoding="UTF-8" standalone="no"?>
<!DOCTYPE svg PUBLIC "-//W3C//DTD SVG 1.1//EN"
 "http://www.w3.org/Graphics/SVG/1.1/DTD/svg11.dtd">
<!-- Generated by graphviz version 2.43.0 (0)
 -->
<!-- Title: %3 Pages: 1 -->
<svg width="336pt" height="231pt"
 viewBox="0.00 0.00 335.89 231.00" xmlns="http://www.w3.org/2000/svg" xmlns:xlink="http://www.w3.org/1999/xlink">
<g id="graph0" class="graph" transform="scale(1 1) rotate(0) translate(4 227)">
<title>%3</title>
<polygon fill="#3f3f3f" stroke="transparent" points="-4,4 -4,-227 331.89,-227 331.89,4 -4,4"/>
<text text-anchor="middle" x="163.95" y="-9.2" font-family="Times,serif" font-size="16.00" fill="white">Network Map</text>
<!-- sw&#45;c2960 -->
<g id="node1" class="node">
<title>sw&#45;c2960</title>
<path fill="#006699" stroke="#006699" d="M232.89,-99C232.89,-99 130.89,-99 130.89,-99 124.89,-99 118.89,-93 118.89,-87 118.89,-87 118.89,-38 118.89,-38 118.89,-32 124.89,-26 130.89,-26 130.89,-26 232.89,-26 232.89,-26 238.89,-26 244.89,-32 244.89,-38 244.89,-38 244.89,-87 244.89,-87 244.89,-93 238.89,-99 232.89,-99"/>
<text text-anchor="middle" x="181.89" y="-58.8" font-family="Helvetica,sans-Serif" font-size="14.00" fill="white">sw&#45;c2960</text>
</g>
<!-- Mikrotik-1 -->
<g id="node2" class="node">
<title>Mikrotik-1</title>
<path fill="#006699" stroke="#006699" d="M153.39,-223C153.39,-223 88.39,-223 88.39,-223 82.39,-223 76.39,-217 76.39,-211 76.39,-211 76.39,-162 76.39,-162 76.39,-156 82.39,-150 88.39,-150 88.39,-150 153.39,-150 153.39,-150 159.39,-150 165.39,-156 165.39,-162 165.39,-162 165.39,-211 165.39,-211 165.39,-217 159.39,-223 153.39,-223"/>
<text text-anchor="middle" x="120.89" y="-182.8" font-family="Helvetica,sans-Serif" font-size="14.00" fill="white">Mikrotik-1</text>
</g>
<!-- sw&#45;c2960&#45;&#45;Mikrotik-1 -->
<g id="edge2" class="edge">
<title>sw&#45;c2960&#45;&#45;Mikrotik-1</title>
<path fill="none" stroke="green" stroke-dasharray="5,2" d="M133.78,-99.02C129.01,-104.51 124.85,-110.53 121.89,-117 117.29,-127.06 115.91,-138.85 116,-149.79"/>
<text text-anchor="middle" x="171.89" y="-120.8" font-family="Courier,monospace" font-size="14.00" fill="white"> &#160;&#160;&#160;&#160;&#160;&#160;&#160;&#160;&#160;&#160;&#160;</text>
<text text-anchor="middle" x="58" y="-138.59" font-family="Courier,monospace" font-size="14.00" fill="white">ether4</text>
<text text-anchor="middle" x="104.78" y="-102.82" font-family="Courier,monospace" font-size="14.00" fill="white">Gig 0/9</text>
</g>
<!-- MikroTik -->
<g id="node3" class="node">
<title>Mikrotik-2</title>
<path fill="#006699" stroke="#006699" d="M289.89,-223C289.89,-223 197.89,-223 197.89,-223 191.89,-223 185.89,-217 185.89,-211 185.89,-211 185.89,-162 185.89,-162 185.89,-156 191.89,-150 197.89,-150 197.89,-150 289.89,-150 289.89,-150 295.89,-150 301.89,-156 301.89,-162 301.89,-162 301.89,-211 301.89,-211 301.89,-217 295.89,-223 289.89,-223"/>
<text text-anchor="middle" x="243.89" y="-182.8" font-family="Helvetica,sans-Serif" font-size="14.00" fill="white">Mikrotik-2</text>
</g>
<!-- sw&#45;c2960&#45;&#45;MikroTik -->
<g id="edge1" class="edge">
<title>sw&#45;c2960&#45;&#45;Mikrotik-2</title>
<path fill="none" stroke="green" stroke-dasharray="5,2" d="M211.13,-99.28C215.07,-105.01 218.81,-111.02 221.89,-117 227.16,-127.21 231.48,-138.93 234.86,-149.75"/>
<text text-anchor="middle" x="277.89" y="-120.8" font-family="Courier,monospace" font-size="14.00" fill="white"> &#160;&#160;&#160;&#160;&#160;&#160;&#160;&#160;&#160;&#160;&#160;</text>
<text text-anchor="middle" x="180.86" y="-138.55" font-family="Courier,monospace" font-size="14.00" fill="white">ether2</text>
<text text-anchor="middle" x="182.13" y="-103.08" font-family="Courier,monospace" font-size="14.00" fill="white">Gig 0/6</text>
</g>
</g>
</svg>
